<svg id="fi_12786558" height="2000" viewBox="0 0 2000 2000" width="2000" xmlns="http://www.w3.org/2000/svg" data-name="Layer 1"><g id="b" data-name=" 230755912"><path d="m809.627 244.1357h380.75c30.2734 0 54.8203 24.5469 54.8203 54.8282v100.5156c0 30.2812-24.5469 54.8203-54.8203 54.8203h-380.75c-30.2813 0-54.8282-24.5391-54.8282-54.8203v-100.5156c0-30.2813 24.5469-54.8282 54.8282-54.8282z" fill="#99c5f2"></path><path d="m1190.377 470.7998h-380.75c-39.3306 0-71.3282-31.9941-71.3282-71.3203v-100.5156c0-39.3306 31.9976-71.3282 71.3282-71.3282h380.75c39.3261 0 71.3203 31.9976 71.3203 71.3282v100.5156c0 39.3262-31.9942 71.3203-71.3203 71.3203zm-380.75-210.1641c-21.1343 0-38.3282 17.1939-38.3282 38.3282v100.5156c0 21.1299 17.1939 38.3203 38.3282 38.3203h380.75c21.1298 0 38.3203-17.1904 38.3203-38.3203v-100.5156c0-21.1343-17.1905-38.3282-38.3203-38.3282z" fill="#3d6e9e"></path></g><g id="c" data-name=" 226178496"><path d="m809.627 454.2998h380.7421v454.4688l427.5 739.8437c27.9851351 46.435402-8.40654 108.6621985-62.3139797 107.249159-277.0616412-.0405005-834.5191466.0306392-1111.5155361.0007505-39.4907842.0000905-71.4985842-32.0077095-71.4985842-71.4999095 0-15.4453 4.8828-29.7344 13.2031-41.4297 0 0 423.8907-734.1719 423.8907-734.1719v-454.4609z" fill="#c4e2ff"></path><path d="m1556.0117 1772.3638c.0674221.0754399-1111.8651702-.0575316-1111.9702584-.0013284-48.5238416-.0001716-88.0004416-39.4767716-88.0004416-88.0001716 0-18.1352 5.4556-35.5166 15.7847-50.3223 0 0 421.3091-729.7006 421.3091-729.7006v-450.0396c0-9.1128 7.3872-16.5 16.5-16.5h380.7343c9.1128 0 16.5 7.3872 16.5 16.5v450.0444s425.2867 736.0132 425.2867 736.0132c34.2254896 56.9306235-9.8024223 133.1660907-76.1441 132.0064zm-729.8769-1301.564s0 437.9609 0 437.9609c0 2.8965-.7622 5.7417-2.211 8.25-.8482048 1.3216624-423.8299302 734.3491382-424.7325835 735.4834469-6.6409165 9.3349531-10.1502165 20.3539531-10.1502165 31.8681531 0 30.3272 24.6729 55 55 55h1111.5156c9.7489266.0806371 19.4079048-2.4699952 27.8920988-7.3682018 26.2593012-15.1669982 35.2920012-48.8719982 20.1309012-75.1317982 0 0-427.4971-739.8389-427.4971-739.8389-1.4502-2.5092-2.2134-5.3564-2.2134-8.2548v-437.9688z" fill="#3d6e9e"></path></g><g id="d" data-name=" 234941112"><path d="m762.1191 1186.7529-272.0781 471.25h1020.2422l-227.6719-394.0156c-204.0124683 64.8951054-329.1663763-76.6158953-520.4922-77.2344z" fill="#ee6f53"></path><path d="m1510.3032 1674.5029c.0070947.0123846-1020.2604846-.0089269-1020.2621614.0000271-5.8950386-.0000271-11.3423386-3.1450271-14.2895386-8.2500271-2.9473-5.105-2.9473-11.395 0-16.5 0 0 272.0781-471.25 272.0781-471.25 3.0107-5.2138 8.6074-8.394 14.6411-8.2461 198.241049-.2433743 305.1340048 140.1630339 515.4308104 77.9161468 7.3176896-2.1792468 15.1760896.9481532 18.9963896 7.5594532 0 0 227.2774 393.333 227.2774 393.333 1.6631 2.5752 2.6279 5.6436 2.6279 8.9375 0 9.1128-7.3872 16.5-16.5 16.5zm-991.6831-33h963.0728l-206.9619-358.1738c-213.8265031 55.8686572-311.6404731-73.3132047-503.2603-79.7734z" fill="#3d6e9e"></path></g><g id="e" data-name=" 234942408"><path d="m1122.7051 1358.4717c56.8637518 1.7553513 56.8423662 84.2940192-.000933 86.0390193-56.8658563-1.7513043-56.8604285-84.2943352.000933-86.0390193zm152.3047 121.0703c37.7386123 1.1641512 37.721756 55.9605563-.0006181 57.1172129-37.7398708-1.1652818-37.7389488-55.9556933.0006181-57.1172129zm-171.7266 47.2187c36.2432839 1.1223811 36.2418628 53.7066431-.0005955 54.8204113-36.2291034-1.1183444-36.2134111-53.7042865.0005955-54.8204113z" fill="#fbad6a"></path><path d="m1103.2832 1598.0811c-58.0290503-1.8458569-58.0076414-85.9829396.0009626-87.8204223 58.0413468 1.8463785 58.0351646 85.9831327-.0009626 87.8204223zm0-54.8204c-14.409505.4588067-14.4136991 21.3640953.0002392 21.8204049 14.4377596-.4586367 14.426708-21.3636041-.0002392-21.8204049zm171.7266 9.8985c-59.5392756-1.894488-59.5327224-88.2320736.0009879-90.1172218 59.5353782 1.8940753 59.513616 88.2317312-.0009879 90.1172218zm0-57.1172c-15.9349528.5067011-15.9235548 23.6124997.0002643 24.1172065 15.9165679-.5070737 15.9203859-23.6129356-.0002643-24.1172065zm-152.3047-35.0313c-78.6608648-2.5027366-78.6497793-116.5484346.001305-119.039029 78.6566765 2.5023284 78.6303601 116.5482313-.001305 119.039029zm0-86.039c-35.0565535 1.1150143-35.0406004 51.9289247.0005814 53.0390137 35.0378546-1.1152636 35.0371418-51.9293717-.0005814-53.0390137z" fill="#3d6e9e"></path></g></svg>