<svg fill="none" height="128" viewBox="0 0 128 128" width="128" xmlns="http://www.w3.org/2000/svg" xmlns:xlink="http://www.w3.org/1999/xlink"><clipPath id="clip0_11752_8880"><path d="m0 0h128v128h-128z"/></clipPath><g clip-path="url(#clip0_11752_8880)"><path d="m35 83.2127c0 1.535.8784 2.9347 2.2607 3.6021l18.7931 9.0742c4.3973 2.1233 9.5234 2.1222 13.9199-.0028l18.767-9.071c1.3815-.6677 2.2593-2.0669 2.2593-3.6014v-31.9638c0-8.8366-7.1634-16-16-16h-24c-8.8366 0-16 7.1634-16 16z" fill="#ffba33"/><path d="m11.6573 47.2114c-.8863-.3207-.8774-1.5772.0133-1.8854l48.6951-16.8472c1.6713-.5782 3.4872-.5863 5.1637-.023l48.7656 16.3854c.897.3012.913 1.563.025 1.8873l-49.0302 17.9017c-1.7644.6442-3.6992.6471-5.4655.008z" fill="#027ef1"/><path clip-rule="evenodd" d="m61.5 47.75c0-2.2091 1.7909-4 4-4h38.5c3.314 0 6 2.6863 6 6v37.5c0 2.2091-1.791 4-4 4s-4-1.7909-4-4v-35.5h-36.5c-2.2091 0-4-1.7909-4-4z" fill="#ffd482" fill-rule="evenodd"/><path d="m99 95.25c0 2.7614 2.239 5 5 5h4c2.761 0 5-2.2386 5-5v-3c0-3.866-3.134-7-7-7s-7 3.134-7 7z" fill="#ffba33"/></g></svg>